<?xml version="1.0" standalone="no"?>
<!DOCTYPE svg PUBLIC "-//W3C//DTD SVG 20010904//EN"
 "http://www.w3.org/TR/2001/REC-SVG-20010904/DTD/svg10.dtd">
<svg version="1.0" xmlns="http://www.w3.org/2000/svg"
 width="400.000000pt" height="400.000000pt" viewBox="0 0 400.000000 400.000000"
 preserveAspectRatio="xMidYMid meet">
<metadata>
Created by potrace 1.11, written by Peter Selinger 2001-2013
</metadata>
<g transform="translate(0.000000,400.000000) scale(0.100000,-0.100000)"
fill="#000000" stroke="none">
<path d="M1840 3313 c-80 -46 -162 -94 -182 -106 -20 -12 -78 -46 -130 -76
-51 -29 -145 -84 -208 -121 -165 -97 -849 -494 -890 -517 -19 -11 -84 -49
-145 -85 -60 -36 -150 -89 -200 -117 -49 -28 -84 -51 -78 -51 10 0 73 -35 128
-70 13 -8 438 -257 944 -552 l921 -537 918 535 c504 295 950 555 990 580 41
24 79 44 85 44 7 1 -3 9 -20 18 -18 9 -90 51 -160 92 -71 41 -137 80 -148 86
-11 6 -38 22 -60 36 -22 13 -61 36 -86 51 -26 14 -141 80 -255 148 -115 67
-222 129 -239 139 -16 9 -113 66 -215 125 -102 60 -201 118 -222 129 -140 80
-260 150 -366 213 -67 40 -125 73 -128 73 -3 0 -22 11 -42 25 -20 14 -43 25
-52 24 -8 0 -80 -39 -160 -86z"/>
<path d="M68 1968 c40 -24 491 -287 1002 -586 l930 -542 930 542 c964 563
1047 612 1057 622 4 3 -52 6 -123 6 l-129 0 -868 -505 -867 -505 -867 505
-868 505 -135 0 -135 0 73 -42z"/>
<path d="M21 1766 c13 -7 86 -50 162 -95 76 -44 142 -81 147 -81 6 0 10 -3 10
-7 0 -5 10 -13 23 -19 39 -19 141 -76 157 -88 8 -6 24 -16 35 -22 33 -18 695
-403 760 -443 33 -20 62 -36 65 -36 3 0 16 -8 30 -16 53 -34 181 -109 185
-109 3 0 29 -16 59 -35 30 -19 58 -35 62 -35 4 0 15 -6 23 -14 9 -7 41 -27 71
-43 88 -48 134 -75 152 -91 11 -9 27 -12 43 -8 14 4 119 61 233 127 114 66
239 139 277 161 39 23 82 49 97 59 15 11 30 19 32 19 3 0 35 18 71 40 36 22
67 40 69 40 3 0 75 41 156 90 8 5 197 115 420 244 223 129 410 239 415 244 6
5 15 11 21 13 29 12 184 105 184 110 0 4 -55 7 -122 7 l-123 0 -867 -505 -868
-504 -867 505 -868 504 -134 0 c-115 1 -131 -1 -110 -12z"/>
</g>
</svg>
